<svg width="52" height="38" viewBox="0 0 52 38" fill="none" xmlns="http://www.w3.org/2000/svg" xmlns:xlink="http://www.w3.org/1999/xlink">
<path d="M1.857,6.98L50.143,6.98C51.169,6.98 52,6.285 52,5.429L52,1.551C52,0.694 51.169,0 50.143,0L1.857,0C0.831,0 0,0.694 0,1.551L0,5.429C0,6.285 0.831,6.98 1.857,6.98ZM1.857,22.49L50.143,22.49C51.169,22.49 52,21.795 52,20.939L52,17.061C52,16.205 51.169,15.51 50.143,15.51L1.857,15.51C0.831,15.51 0,16.205 0,17.061L0,20.939C0,21.795 0.831,22.49 1.857,22.49ZM1.857,38L50.143,38C51.169,38 52,37.306 52,36.449L52,32.571C52,31.715 51.169,31.02 50.143,31.02L1.857,31.02C0.831,31.02 0,31.715 0,32.571L0,36.449C0,37.306 0.831,38 1.857,38Z" fill="#353535"/>
</svg>
