<svg width="44" height="44" viewBox="0 0 44 44" fill="none" xmlns="http://www.w3.org/2000/svg" xmlns:xlink="http://www.w3.org/1999/xlink">
<path d="M40.625,17.188L26.562,17.188L26.562,3.125C26.562,1.399 25.163,0 23.438,0L20.312,0C18.587,0 17.188,1.399 17.188,3.125L17.188,17.188L3.125,17.188C1.399,17.188 0,18.587 0,20.312L0,23.438C0,25.163 1.399,26.562 3.125,26.562L17.188,26.562L17.188,40.625C17.188,42.351 18.587,43.75 20.312,43.75L23.438,43.75C25.163,43.75 26.562,42.351 26.562,40.625L26.562,26.562L40.625,26.562C42.351,26.562 43.75,25.163 43.75,23.438L43.75,20.312C43.75,18.587 42.351,17.188 40.625,17.188Z" fill="#1E1E1E"/>
</svg>
