<svg width="40" height="40" viewBox="0 0 40 40" fill="none" xmlns="http://www.w3.org/2000/svg" xmlns:xlink="http://www.w3.org/1999/xlink">
<path d="M11.417,30.5C9.308,30.5 7.602,32.225 7.602,34.333C7.602,36.442 9.308,38.167 11.417,38.167C13.525,38.167 15.25,36.442 15.25,34.333C15.25,32.225 13.525,30.5 11.417,30.5ZM-0.083,-0.167L-0.083,3.667L3.75,3.667L10.65,18.214L8.062,22.91C7.756,23.447 7.583,24.079 7.583,24.75C7.583,26.858 9.308,28.583 11.417,28.583L34.417,28.583L34.417,24.75L12.222,24.75C11.953,24.75 11.742,24.539 11.742,24.271L11.8,24.041L13.525,20.917L27.804,20.917C29.242,20.917 30.507,20.131 31.158,18.943L38.02,6.503C38.173,6.235 38.25,5.909 38.25,5.583C38.25,4.529 37.387,3.667 36.333,3.667L7.986,3.667L6.184,-0.167L-0.083,-0.167ZM30.583,30.5C28.475,30.5 26.769,32.225 26.769,34.333C26.769,36.442 28.475,38.167 30.583,38.167C32.692,38.167 34.417,36.442 34.417,34.333C34.417,32.225 32.692,30.5 30.583,30.5Z" fill="#353535"/>
</svg>
