<svg width="54" height="54" viewBox="0 0 54 54" fill="none" xmlns="http://www.w3.org/2000/svg" xmlns:xlink="http://www.w3.org/1999/xlink">
<path d="M27,54C12.085,54 0,41.915 0,27C0,12.085 12.085,0 27,0C41.915,0 54,12.085 54,27C54,41.915 41.915,54 27,54ZM30.146,38.366L21.927,30.484L41.806,30.484C43.254,30.484 44.419,29.319 44.419,27.871L44.419,26.129C44.419,24.681 43.254,23.516 41.806,23.516L21.927,23.516L30.146,15.634C31.202,14.621 31.224,12.934 30.19,11.9L28.992,10.713C27.969,9.69 26.314,9.69 25.302,10.713L10.854,25.149C9.831,26.173 9.831,27.827 10.854,28.84L25.302,43.287C26.325,44.31 27.98,44.31 28.992,43.287L30.19,42.1C31.224,41.066 31.202,39.379 30.146,38.366Z" fill="#848484"/>
</svg>
