<svg width="160" height="160" viewBox="0 0 160 160" fill="none" xmlns="http://www.w3.org/2000/svg" xmlns:xlink="http://www.w3.org/1999/xlink">
<path d="M80,0C35.816,0 0,35.816 0,80C0,124.184 35.816,160 80,160C124.184,160 160,124.184 160,80C160,35.816 124.184,0 80,0ZM125.656,61.656L69.656,117.656C68.096,119.216 66.048,120 64,120C61.952,120 59.904,119.216 58.344,117.656L34.344,93.656C31.216,90.528 31.216,85.472 34.344,82.344C37.472,79.216 42.528,79.216 45.656,82.344L64,100.688L114.344,50.344C117.472,47.216 122.528,47.216 125.656,50.344C128.784,53.472 128.784,58.528 125.656,61.656Z" fill="#3D7419"/>
</svg>
