<svg width="48" height="28" viewBox="0 0 48 28" fill="none" xmlns="http://www.w3.org/2000/svg" xmlns:xlink="http://www.w3.org/1999/xlink">
<path d="M43.448,-0.75L40.765,-0.75C39.283,-0.75 38.082,0.408 38.082,1.837L38.082,24.262C38.082,25.691 39.283,26.85 40.765,26.85L43.448,26.85C44.93,26.85 46.132,25.691 46.132,24.262L46.132,1.837C46.132,0.408 44.93,-0.75 43.448,-0.75ZM28.138,5.288L30.821,5.288C32.303,5.288 33.504,6.446 33.504,7.875L33.504,24.263C33.504,25.692 32.303,26.85 30.821,26.85L28.138,26.85C26.656,26.85 25.454,25.692 25.454,24.263L25.454,7.875C25.454,6.446 26.656,5.288 28.138,5.288ZM18.194,11.325L15.51,11.325C14.028,11.325 12.827,12.483 12.827,13.912L12.827,24.262C12.827,25.691 14.028,26.85 15.51,26.85L18.194,26.85C19.676,26.85 20.877,25.691 20.877,24.262L20.877,13.912C20.877,12.483 19.676,11.325 18.194,11.325ZM5.566,16.499L2.883,16.499C1.401,16.499 0.199,17.658 0.199,19.087L0.199,24.262C0.199,25.691 1.401,26.849 2.883,26.849L5.566,26.849C7.048,26.849 8.249,25.691 8.249,24.262L8.249,19.087C8.249,17.658 7.048,16.499 5.566,16.499Z" clip-rule="evenodd" fill-rule="evenodd" fill="#000000"/>
</svg>
