<svg width="60" height="46" viewBox="0 0 60 46" fill="none" xmlns="http://www.w3.org/2000/svg" xmlns:xlink="http://www.w3.org/1999/xlink">
<path d="M59.691,1.457C59.887,1.3 60,1.069 60,0.825C60,0.369 59.613,0 59.136,0L1.342,0C0.601,0 0,0.573 0,1.28C0,1.661 0.178,2.022 0.484,2.265L28.659,24.601C29.273,25.088 30.164,25.086 30.775,24.596L59.691,1.457ZM2.707,8.807C1.631,7.954 0,8.684 0,10.019L0,42.542C0,43.412 0.739,44.118 1.651,44.118L58.349,44.118C59.261,44.118 60,43.412 60,42.542L60,9.386C60,8.048 58.362,7.319 57.287,8.179L30.963,29.245L30.787,29.385C30.175,29.875 29.284,29.877 28.67,29.39L28.494,29.25L2.707,8.807Z" clip-rule="evenodd" fill-rule="evenodd" fill="#828282"/>
</svg>
