<svg width="52" height="60" viewBox="0 0 52 60" fill="none" xmlns="http://www.w3.org/2000/svg" xmlns:xlink="http://www.w3.org/1999/xlink">
<path d="M46.429,26.571L43.643,26.571L43.643,18.214C43.643,8.487 35.727,0.571 26,0.571C16.273,0.571 8.357,8.487 8.357,18.214L8.357,26.571L5.571,26.571C2.496,26.571 0,29.067 0,32.143L0,54.429C0,57.504 2.496,60 5.571,60L46.429,60C49.504,60 52,57.504 52,54.429L52,32.143C52,29.067 49.504,26.571 46.429,26.571ZM34.357,26.571L17.643,26.571L17.643,18.214C17.643,13.606 21.392,9.857 26,9.857C30.608,9.857 34.357,13.606 34.357,18.214L34.357,26.571Z" fill="#828282"/>
</svg>
