<svg width="68" height="68" viewBox="0 0 68 68" fill="none" xmlns="http://www.w3.org/2000/svg" xmlns:xlink="http://www.w3.org/1999/xlink">
<path d="M34,0C15.231,0 0,15.231 0,34C0,52.769 15.231,68 34,68C52.769,68 68,52.769 68,34C68,15.231 52.769,0 34,0ZM24.307,51C14.875,51 7.307,43.391 7.307,34C7.307,24.609 14.875,17 24.307,17C28.598,17 32.547,18.508 35.686,21.428L31.08,25.898C29.27,24.129 26.789,23.279 24.307,23.279C18.426,23.279 13.723,28.146 13.723,33.986C13.723,39.827 18.412,44.694 24.307,44.694C28.777,44.694 33.205,42.075 33.918,37.386L24.307,37.386L24.307,31.546L40.334,31.546C40.512,32.478 40.594,33.41 40.594,34.384C40.594,44.09 34.082,51 24.307,51ZM55.867,36.44L55.867,41.307L51,41.307L51,36.44L46.133,36.44L46.133,31.573L51,31.573L51,26.706L55.867,26.706L55.867,31.573L60.693,31.573L60.693,36.44L55.867,36.44Z" fill="#000000"/>
</svg>
