<svg width="44" height="44" viewBox="0 0 44 44" fill="none" xmlns="http://www.w3.org/2000/svg" xmlns:xlink="http://www.w3.org/1999/xlink">
<path d="M18.604,2.856L20.771,0.688C21.689,-0.229 23.174,-0.229 24.082,0.688L43.066,19.663C43.984,20.581 43.984,22.065 43.066,22.974L24.082,41.958C23.164,42.876 21.68,42.876 20.771,41.958L18.604,39.79C17.676,38.862 17.695,37.349 18.643,36.44L30.41,25.229L2.344,25.229C1.045,25.229 0,24.185 0,22.886L0,19.761C0,18.462 1.045,17.417 2.344,17.417L30.41,17.417L18.643,6.206C17.686,5.298 17.666,3.784 18.604,2.856Z" fill="#000000"/>
</svg>
