<svg width="68" height="68" viewBox="0 0 68 68" fill="none" xmlns="http://www.w3.org/2000/svg" xmlns:xlink="http://www.w3.org/1999/xlink">
<path d="M63.143,0L4.842,0C2.171,0 0,2.201 0,4.903L0,63.097C0,65.799 2.171,68 4.842,68L63.143,68C65.814,68 68,65.799 68,63.097L68,4.903C68,2.201 65.814,0 63.143,0ZM20.552,58.286L10.473,58.286L10.473,25.834L20.567,25.834L20.567,58.286L20.552,58.286ZM15.513,21.402C12.279,21.402 9.669,18.776 9.669,15.558C9.669,12.34 12.279,9.714 15.513,9.714C18.73,9.714 21.356,12.34 21.356,15.558C21.356,18.791 18.746,21.402 15.513,21.402ZM58.331,58.286L48.253,58.286L48.253,42.5C48.253,38.736 48.177,33.894 43.016,33.894C37.764,33.894 36.96,37.992 36.96,42.227L36.96,58.286L26.881,58.286L26.881,25.834L36.55,25.834L36.55,30.266L36.687,30.266C38.037,27.716 41.331,25.029 46.234,25.029C56.434,25.029 58.331,31.754 58.331,40.496L58.331,58.286Z" fill="#000000"/>
</svg>
