<svg width="52" height="62" viewBox="0 0 52 62" fill="none" xmlns="http://www.w3.org/2000/svg" xmlns:xlink="http://www.w3.org/1999/xlink">
<path d="M46.429,26.946L43.643,26.946L43.643,18.589C43.643,8.862 35.727,0.946 26,0.946C16.273,0.946 8.357,8.862 8.357,18.589L8.357,26.946L5.571,26.946C2.496,26.946 0,29.442 0,32.517L0,54.803C0,57.879 2.496,60.375 5.571,60.375L46.429,60.375C49.504,60.375 52,57.879 52,54.803L52,32.517C52,29.442 49.504,26.946 46.429,26.946ZM34.357,26.946L17.643,26.946L17.643,18.589C17.643,13.981 21.392,10.232 26,10.232C30.608,10.232 34.357,13.981 34.357,18.589L34.357,26.946Z" fill="#828282"/>
</svg>
