<svg width="70" height="68" viewBox="0 0 70 68" fill="none" xmlns="http://www.w3.org/2000/svg" xmlns:xlink="http://www.w3.org/1999/xlink">
<path d="M68.414,34.207C68.414,15.31 53.103,0 34.207,0C15.31,0 0,15.31 0,34.207C0,51.28 12.509,65.432 28.862,68L28.862,44.095L20.172,44.095L20.172,34.207L28.862,34.207L28.862,26.67C28.862,18.098 33.966,13.363 41.782,13.363C45.526,13.363 49.44,14.03 49.44,14.03L49.44,22.444L45.126,22.444C40.877,22.444 39.552,25.081 39.552,27.786L39.552,34.207L49.039,34.207L47.521,44.095L39.552,44.095L39.552,68C55.905,65.432 68.414,51.28 68.414,34.207Z" fill="#000000"/>
</svg>
