<svg width="40" height="30" viewBox="0 0 40 30" fill="none" xmlns="http://www.w3.org/2000/svg" xmlns:xlink="http://www.w3.org/1999/xlink">
<path d="M19.683,6.646C25.356,6.646 30.812,8.878 34.924,12.881C35.233,13.19 35.728,13.186 36.033,12.872L38.993,9.814C39.147,9.654 39.233,9.439 39.232,9.214C39.23,8.99 39.142,8.775 38.986,8.618C28.194,-1.973 11.17,-1.973 0.378,8.618C0.222,8.775 0.133,8.99 0.132,9.214C0.13,9.439 0.216,9.654 0.371,9.814L3.331,12.872C3.636,13.187 4.131,13.191 4.44,12.881C8.552,8.878 14.009,6.646 19.683,6.646ZM19.683,16.597C22.8,16.597 25.806,17.783 28.116,19.926C28.429,20.23 28.921,20.223 29.225,19.911L32.182,16.852C32.337,16.692 32.424,16.474 32.421,16.248C32.419,16.022 32.328,15.806 32.17,15.649C25.134,8.946 14.238,8.946 7.202,15.649C7.043,15.806 6.952,16.022 6.95,16.248C6.948,16.474 7.035,16.692 7.191,16.852L10.146,19.911C10.451,20.223 10.943,20.23 11.256,19.926C13.565,17.785 16.568,16.598 19.683,16.597ZM25.604,23.293C25.609,23.52 25.522,23.738 25.364,23.897L20.25,29.182C20.1,29.337 19.896,29.425 19.683,29.425C19.47,29.425 19.265,29.337 19.115,29.182L14.001,23.897C13.843,23.738 13.756,23.52 13.761,23.293C13.765,23.066 13.861,22.851 14.026,22.699C17.291,19.871 22.074,19.871 25.34,22.699C25.504,22.851 25.6,23.066 25.604,23.293Z" clip-rule="evenodd" fill-rule="evenodd" fill="#000000"/>
</svg>
